<?xml version="1.0" standalone="no"?>
<!DOCTYPE svg PUBLIC "-//W3C//DTD SVG 20010904//EN"
 "http://www.w3.org/TR/2001/REC-SVG-20010904/DTD/svg10.dtd">
<svg version="1.0" xmlns="http://www.w3.org/2000/svg"
 width="908.000000pt" height="908.000000pt" viewBox="0 0 908.000000 908.000000"
 preserveAspectRatio="xMidYMid meet">
<metadata>
Created by potrace 1.14, written by Peter Selinger 2001-2017
</metadata>
<g transform="translate(0.000000,908.000000) scale(0.100000,-0.100000)"
fill="#000000" stroke="none">
<path d="M8510 5785 l0 -1260 247 0 248 1 3 1260 2 1260 -250 0 -250 0 0
-1261z"/>
<path d="M5948 6386 c-1 -2 -55 -6 -118 -9 -63 -4 -130 -11 -148 -16 -18 -5
-34 -10 -37 -11 -13 -2 -46 -14 -105 -38 -128 -51 -232 -132 -302 -234 -21
-32 -36 -58 -32 -58 3 0 -1 -11 -10 -25 -9 -14 -14 -25 -12 -25 3 0 -2 -16
-10 -36 -8 -20 -17 -55 -19 -79 -5 -44 0 -50 45 -62 8 -2 111 -5 228 -6 l214
-2 12 25 c7 14 18 44 26 68 24 77 105 148 191 168 44 10 162 13 203 4 79 -16
88 -19 132 -45 60 -35 76 -64 81 -143 6 -103 -5 -142 -52 -173 -37 -24 -158
-60 -250 -75 -22 -3 -42 -7 -45 -9 -3 -2 -37 -6 -75 -10 -39 -4 -73 -9 -76
-11 -3 -2 -32 -6 -63 -9 -103 -10 -269 -55 -354 -96 -105 -51 -186 -129 -233
-225 l-34 -69 0 -150 c1 -129 4 -160 24 -222 13 -40 27 -73 32 -73 4 0 10 -8
13 -18 9 -27 86 -105 139 -140 55 -37 183 -78 281 -90 151 -19 348 0 471 47
60 23 175 85 205 111 19 16 39 29 44 27 5 -2 16 -34 24 -72 7 -39 17 -72 22
-75 11 -7 499 -5 506 3 3 3 -1 16 -9 29 -27 41 -34 144 -42 593 -16 922 -18
938 -127 1040 -33 31 -70 61 -84 67 -13 6 -24 14 -24 18 0 11 -91 48 -155 64
-86 21 -122 25 -295 31 -85 4 -160 8 -167 10 -6 2 -13 2 -15 1z m337 -1136
c-1 -141 -7 -189 -31 -249 -28 -70 -147 -159 -235 -176 -147 -27 -296 4 -368
77 -39 40 -48 69 -47 154 1 60 6 78 29 113 15 22 45 53 67 67 33 22 148 59
244 78 59 12 124 26 146 31 14 3 39 8 55 10 17 3 44 9 60 14 17 5 41 9 55 8
l25 -2 0 -125z"/>
<path d="M3879 6376 c-2 -2 -24 -6 -49 -9 -129 -16 -290 -107 -412 -232 -81
-83 -193 -267 -213 -353 -3 -9 -14 -53 -26 -97 -15 -59 -21 -119 -24 -230 -4
-160 8 -254 47 -375 21 -65 84 -200 98 -210 4 -3 13 -16 19 -28 23 -43 144
-172 161 -172 5 0 10 -3 10 -8 0 -4 30 -26 68 -49 163 -101 270 -125 532 -119
102 2 197 7 213 10 15 3 39 8 55 12 15 3 32 6 37 8 6 2 24 6 40 11 60 16 183
83 223 122 7 7 21 18 31 25 25 19 121 140 121 154 0 6 6 17 14 23 14 12 91
198 100 241 2 14 8 40 12 57 5 28 3 34 -16 41 -13 5 -116 8 -230 8 -213 -1
-240 -6 -240 -43 0 -33 -78 -169 -120 -210 -174 -170 -463 -129 -585 82 -70
120 -103 326 -81 510 5 46 8 64 20 113 38 157 180 318 301 340 84 15 207 -1
285 -36 60 -27 145 -135 156 -200 10 -54 8 -54 309 -56 99 -1 185 0 192 2 6 2
10 14 7 28 -2 13 -6 35 -8 49 -24 134 -91 264 -188 363 -92 93 -258 187 -389
218 -27 7 -464 16 -470 10z"/>
<path d="M8068 6374 c-2 -2 -20 -5 -38 -8 -107 -14 -269 -138 -378 -288 -18
-27 -36 -48 -39 -48 -2 0 -4 24 -3 53 1 28 1 100 1 158 l-1 105 -240 0 -239 0
0 -907 c-1 -711 2 -908 12 -911 16 -5 476 -3 481 3 3 2 7 153 10 334 5 350 13
566 20 612 3 15 7 46 11 68 10 71 14 86 35 129 56 117 191 214 335 241 53 10
233 4 253 -9 19 -12 24 15 22 108 -1 50 -4 145 -5 211 -2 66 -4 127 -4 137 -1
14 -16 16 -115 16 -63 0 -116 -2 -118 -4z"/>
<path d="M2162 4469 c-23 -9 -25 -32 -26 -311 l-1 -228 -25 -1 c-14 0 -74 -1
-135 0 -60 0 -117 -2 -126 -5 -14 -4 -16 -26 -16 -169 0 -160 1 -165 21 -166
12 0 78 -1 149 -1 l127 -1 1 -26 c0 -14 2 -253 4 -531 2 -278 6 -538 9 -578
14 -170 142 -303 323 -337 145 -26 513 -28 539 -2 5 5 8 296 5 364 -1 8 -40
11 -135 12 -144 0 -174 8 -198 49 -31 53 -35 125 -43 657 l-6 391 128 3 c181
4 233 7 240 15 3 3 7 36 9 73 1 38 4 109 6 158 l3 90 -165 2 c-91 1 -177 2
-191 2 l-27 1 0 238 c0 130 0 253 -1 273 l-1 35 -225 0 c-124 -1 -234 -4 -243
-7z"/>
<path d="M4027 3973 c-1 -1 -27 -4 -57 -7 -78 -8 -108 -13 -170 -31 -30 -9
-59 -17 -65 -18 -27 -7 -131 -60 -182 -94 -66 -43 -198 -172 -208 -202 -3 -12
-10 -21 -15 -21 -4 0 -29 -42 -54 -92 -45 -89 -73 -169 -80 -233 -30 -246 -25
-453 15 -587 42 -142 137 -300 239 -397 60 -56 259 -169 345 -195 61 -18 417
-26 540 -12 154 18 345 121 466 250 49 53 128 165 129 182 0 6 6 17 14 23 19
16 74 189 90 286 13 79 14 292 2 369 -15 94 -93 329 -115 346 -4 3 -20 27 -35
53 -76 131 -243 264 -407 323 -64 22 -215 51 -284 54 -106 4 -167 5 -168 3z
m163 -397 c82 -8 128 -31 192 -98 65 -66 108 -143 131 -235 69 -268 14 -573
-127 -706 -36 -35 -136 -95 -136 -82 0 2 -12 -1 -27 -7 -34 -13 -177 -20 -206
-9 -12 5 -40 14 -62 21 -44 14 -120 63 -148 95 -55 64 -113 202 -125 299 -7
59 -6 243 2 301 28 216 116 353 256 400 46 15 164 34 185 29 6 -2 35 -5 65 -8z"/>
<path d="M6295 3968 c-108 -11 -157 -24 -240 -66 -67 -34 -107 -64 -188 -144
-37 -38 -69 -68 -72 -68 -3 0 -5 37 -4 83 0 45 0 99 0 119 l-1 36 -237 -1
-238 -2 -2 -907 -2 -908 32 0 c187 -3 479 -1 482 2 3 2 7 211 10 464 5 481 11
692 20 734 17 72 26 92 66 146 54 74 132 104 274 108 157 4 228 -36 285 -162
40 -88 40 -96 52 -1064 l3 -228 35 -1 c184 -3 453 0 457 5 4 4 5 106 4 229 -8
618 -10 765 -15 917 -6 157 -13 269 -21 309 -4 22 -47 124 -55 131 -3 3 -18
24 -34 47 -35 52 -116 125 -173 157 -73 41 -126 54 -248 62 -44 3 -89 6 -100
7 -11 1 -51 -1 -90 -5z"/>
<path d="M698 3965 c-2 -2 -24 -6 -48 -9 -70 -9 -173 -41 -242 -76 -161 -82
-256 -196 -284 -342 -20 -109 -6 -267 31 -342 22 -46 103 -131 134 -141 11 -3
21 -11 21 -16 0 -5 5 -9 10 -9 6 0 29 -9 53 -19 86 -40 346 -119 452 -138 17
-3 36 -10 43 -15 6 -6 12 -8 12 -5 0 3 12 2 28 -3 15 -4 67 -20 115 -34 101
-30 130 -44 172 -83 81 -76 75 -166 -17 -247 -65 -57 -130 -78 -245 -82 -133
-5 -218 25 -306 106 -47 43 -70 84 -73 130 -1 19 -3 38 -3 43 -1 4 -109 7
-242 7 l-241 0 7 -67 c17 -175 118 -332 276 -429 61 -37 169 -87 169 -79 0 3
8 1 18 -4 17 -9 75 -18 167 -27 61 -6 391 -5 471 0 39 3 82 9 95 14 13 5 26 9
29 9 13 -1 90 29 130 51 116 64 206 156 260 267 49 99 53 115 56 246 4 154
-24 235 -115 325 -45 44 -170 118 -246 145 -79 28 -167 53 -255 73 -59 14
-117 27 -130 31 -3 1 -21 5 -40 9 -82 18 -208 60 -245 84 -165 103 -129 243
76 296 27 7 46 10 44 6 -3 -5 10 -5 28 -1 58 13 147 -5 244 -51 51 -24 74 -53
99 -127 13 -37 26 -56 43 -62 27 -11 427 -16 437 -6 15 14 3 110 -22 175 -55
147 -143 245 -282 315 -63 31 -132 51 -252 73 -38 7 -426 15 -432 9z"/>
<path d="M8014 3961 c-2 -3 -17 -5 -32 -6 -76 -5 -208 -62 -318 -137 -201
-138 -349 -375 -381 -613 -9 -61 -7 -298 2 -379 28 -250 170 -485 370 -614
101 -65 252 -123 355 -137 44 -5 285 -6 325 -1 104 14 142 22 218 48 98 32
188 86 260 155 91 87 206 285 210 363 l2 35 -70 -2 c-38 0 -126 -2 -195 -3
-140 -3 -166 -11 -193 -62 -33 -61 -177 -149 -274 -167 -145 -28 -333 24 -408
111 -61 72 -114 215 -115 309 l0 26 646 0 c539 0 648 3 656 14 9 13 4 218 -6
284 -39 240 -133 426 -293 577 -93 88 -226 164 -320 183 -66 13 -429 26 -439
16z m246 -384 c99 -15 142 -35 192 -91 40 -44 109 -175 114 -216 7 -57 -24
-62 -396 -62 -260 1 -372 6 -393 19 -16 9 17 135 40 154 7 6 13 17 13 25 0 17
107 122 145 142 62 33 178 45 285 29z"/>
</g>
</svg>
