<svg xmlns="http://www.w3.org/2000/svg" version="1.0" preserveAspectRatio="xMidYMid meet" width="454.12903213897926" height="253.12903213897926" style=""><rect id="backgroundrect" width="100%" height="100%" x="0" y="0" fill="none" stroke="none" class="" style=""/>
<metadata>
Created by potrace 1.16, written by Peter Selinger 2001-2019
</metadata>

<g class="currentLayer" style=""><title>Layer 1</title><g transform="translate(0,900) scale(0.10000000149011612,-0.10000000149011612) " fill="#000000" stroke="none" id="svg_1" class="" fill-opacity="1">
<path d="M4263.1186056137085,8357.777587890625 l0,-630 l125,0 l125,0 l0,630 l0,630 l-125,0 l-125,0 l0,-630 z" id="svg_2" fill="#000000" fill-opacity="1"/>
<path d="M1909.1186056137085,8646.777587890625 c-150,-37 -272,-167 -311,-331 c-51,-215 17,-428 169,-533 c89,-61 158,-78 299,-73 c132,5 193,23 271,83 c62,47 115,144 139,253 c5,22 5,22 -119,22 c-111,0 -124,-2 -124,-17 c0,-10 -13,-40 -28,-68 c-66,-122 -246,-128 -321,-10 c-56,89 -66,258 -20,364 c26,62 85,117 134,127 c48,9 120,-2 155,-23 c29,-17 70,-79 70,-107 c0,-14 17,-16 126,-16 l127,0 l-7,42 c-18,111 -94,206 -208,259 c-68,31 -81,33 -193,36 c-66,1 -137,-2 -159,-8 z" id="svg_3" fill="#000000" fill-opacity="1"/>
<path d="M2836.1186056137085,8642.777587890625 c-122,-34 -211,-108 -238,-198 c-27,-91 -32,-87 109,-87 l124,0 l14,42 c15,50 57,82 118,92 c73,11 159,-14 180,-53 c17,-32 12,-106 -7,-124 c-25,-22 -111,-43 -228,-57 c-183,-22 -272,-63 -322,-148 c-25,-41 -28,-57 -28,-132 c0,-96 16,-141 71,-196 c100,-100 365,-101 499,-3 l40,30 l8,-41 l8,-40 l130,0 l130,0 l-13,23 c-10,16 -14,113 -18,372 c-6,391 -6,396 -79,456 c-69,57 -129,72 -296,76 c-109,2 -164,-1 -202,-12 zm315,-574 c-3,-98 -16,-127 -77,-168 c-65,-44 -190,-38 -240,12 c-21,20 -26,35 -26,75 c0,42 5,54 31,80 c27,27 47,35 165,59 c74,16 138,29 142,30 c5,0 7,-39 5,-88 z" id="svg_4" fill="#000000" fill-opacity="1"/>
<path d="M3997.1186056137085,8641.777587890625 c-49,-17 -115,-72 -155,-127 l-29,-40 l0,81 l0,82 l-120,0 l-120,0 l0,-455 l0,-455 l124,0 l124,0 l4,248 c6,291 13,327 81,389 c52,48 122,69 203,59 l55,-6 l-3,117 l-3,118 l-60,2 c-33,1 -79,-5 -101,-13 z" id="svg_5" fill="#000000" fill-opacity="1"/>
<path d="M1083.1186056137085,7699.777587890625 c-6,-2 -10,-57 -10,-138 l0,-134 l-75,0 l-75,0 l0,-85 l0,-85 l75,0 l75,0 l0,-282 c0,-164 4,-299 10,-320 c14,-51 56,-97 107,-120 c48,-21 204,-35 276,-24 l47,7 l0,95 l0,94 l-73,0 c-115,0 -111,-10 -115,296 l-4,253 l94,3 l93,3 l3,83 l3,82 l-96,0 l-95,0 l0,138 l0,137 l-115,0 c-63,0 -119,-1 -125,-3 z" id="svg_6" fill="#000000" fill-opacity="1"/>
<path d="M349.1186056137085,7444.777587890625 c-134,-14 -246,-90 -274,-185 c-17,-55 -15,-148 3,-187 c38,-79 102,-113 307,-164 c85,-22 169,-46 186,-55 c144,-74 16,-222 -159,-185 c-65,14 -129,70 -129,113 l0,26 l-121,0 l-122,0 l6,-52 c8,-67 62,-149 124,-188 c87,-55 133,-65 303,-65 c137,1 161,3 212,23 c123,49 198,155 198,278 c0,145 -85,217 -319,269 c-158,36 -181,44 -218,72 c-68,50 -30,126 70,138 c57,7 78,4 139,-22 c34,-14 43,-27 62,-85 c5,-16 20,-18 121,-18 l115,0 l0,33 c0,44 -40,125 -81,164 c-60,57 -140,86 -254,92 c-56,3 -132,3 -169,-2 z" id="svg_7" fill="#000000" fill-opacity="1"/>
<path d="M1983.1186056137085,7446.777587890625 c-126,-13 -239,-77 -304,-172 c-61,-88 -78,-147 -84,-279 c-5,-140 14,-221 77,-314 c48,-71 89,-105 179,-147 c65,-31 70,-32 207,-32 c131,0 144,2 205,28 c118,49 207,149 245,274 c26,81 30,199 11,286 c-58,259 -248,385 -536,356 zm197,-225 c51,-42 80,-96 93,-178 c20,-125 -12,-260 -75,-315 c-91,-79 -244,-61 -305,36 c-40,63 -53,130 -48,237 c10,178 83,259 230,253 c57,-2 72,-7 105,-33 z" id="svg_8" fill="#000000" fill-opacity="1"/>
<path d="M3126.1186056137085,7445.777587890625 c-69,-12 -129,-43 -177,-94 l-46,-48 l0,62 l0,62 l-120,0 l-120,0 l0,-455 l0,-455 l129,0 l130,0 l3,303 c3,279 5,305 23,341 c30,60 64,80 144,84 c89,5 125,-13 154,-76 c21,-44 22,-64 25,-349 l4,-303 l124,0 l125,0 l-4,343 c-3,225 -8,358 -16,390 c-22,85 -100,165 -180,187 c-50,13 -148,17 -198,8 z" id="svg_9" fill="#000000" fill-opacity="1"/>
<path d="M3943.1186056137085,7427.777587890625 c-150,-55 -258,-181 -291,-340 c-17,-81 -7,-243 20,-310 c49,-127 136,-212 259,-256 c53,-19 88,-24 168,-24 c203,0 323,67 399,224 c34,70 33,88 -4,81 c-9,-2 -55,-4 -102,-4 c-82,-1 -86,-2 -97,-26 c-16,-35 -95,-83 -150,-91 c-55,-8 -134,9 -173,37 c-37,26 -67,85 -76,144 l-6,45 l326,0 l325,0 l6,23 c6,26 0,96 -15,171 c-25,130 -121,257 -234,311 c-54,26 -71,30 -180,32 c-101,3 -129,0 -175,-17 zm269,-199 c19,-14 44,-46 57,-75 c42,-91 52,-86 -176,-86 c-153,0 -200,3 -200,13 c0,61 53,135 115,164 c49,22 163,13 204,-16 z" id="svg_10" fill="#000000" fill-opacity="1"/>
</g></g></svg>