<?xml version="1.0" encoding="UTF-8"?>
<svg xmlns="http://www.w3.org/2000/svg" xmlns:xlink="http://www.w3.org/1999/xlink" width="4540pt" height="2530pt" viewBox="0 0 454 253" version="1.1">
<g id="surface1">
<path fill="#F5F5F5" fill-opacity="1" d="M 425.667969 64.222656 L 425.667969 127.222656 L 450.667969 127.222656 L 450.667969 1.222656 L 425.667969 1.222656 Z M 425.667969 64.222656 "/>
<path fill="#F5F5F5" fill-opacity="1" d="M 190.265625 35.320312 C 175.265625 39.023438 163.066406 52.023438 159.167969 68.421875 C 154.066406 89.921875 160.867188 111.222656 176.066406 121.722656 C 184.964844 127.820312 191.867188 129.523438 205.964844 129.023438 C 219.167969 128.523438 225.265625 126.722656 233.066406 120.722656 C 239.265625 116.023438 244.566406 106.320312 246.964844 95.421875 C 247.464844 93.222656 247.464844 93.222656 235.066406 93.222656 C 223.964844 93.222656 222.667969 93.421875 222.667969 94.921875 C 222.667969 95.921875 221.367188 98.921875 219.867188 101.722656 C 213.265625 113.921875 195.265625 114.523438 187.765625 102.722656 C 182.167969 93.820312 181.167969 76.921875 185.765625 66.320312 C 188.367188 60.121094 194.265625 54.621094 199.167969 53.621094 C 203.964844 52.722656 211.167969 53.820312 214.667969 55.921875 C 217.566406 57.621094 221.667969 63.820312 221.667969 66.621094 C 221.667969 68.023438 223.367188 68.222656 234.265625 68.222656 L 246.964844 68.222656 L 246.265625 64.023438 C 244.464844 52.921875 236.867188 43.421875 225.464844 38.121094 C 218.667969 35.023438 217.367188 34.820312 206.167969 34.523438 C 199.566406 34.421875 192.464844 34.722656 190.265625 35.320312 Z M 190.265625 35.320312 "/>
<path fill="#F5F5F5" fill-opacity="1" d="M 282.964844 35.722656 C 270.765625 39.121094 261.867188 46.523438 259.167969 55.523438 C 256.464844 64.621094 255.964844 64.222656 270.066406 64.222656 L 282.464844 64.222656 L 283.867188 60.023438 C 285.367188 55.023438 289.566406 51.820312 295.667969 50.820312 C 302.964844 49.722656 311.566406 52.222656 313.667969 56.121094 C 315.367188 59.320312 314.867188 66.722656 312.964844 68.523438 C 310.464844 70.722656 301.867188 72.820312 290.167969 74.222656 C 271.867188 76.421875 262.964844 80.523438 257.964844 89.023438 C 255.464844 93.121094 255.167969 94.722656 255.167969 102.222656 C 255.167969 111.820312 256.765625 116.320312 262.265625 121.820312 C 272.265625 131.820312 298.765625 131.921875 312.167969 122.121094 L 316.167969 119.121094 L 316.964844 123.222656 L 317.765625 127.222656 L 343.765625 127.222656 L 342.464844 124.921875 C 341.464844 123.320312 341.066406 113.621094 340.667969 87.722656 C 340.066406 48.621094 340.066406 48.121094 332.765625 42.121094 C 325.867188 36.421875 319.867188 34.921875 303.167969 34.523438 C 292.265625 34.320312 286.765625 34.621094 282.964844 35.722656 Z M 314.464844 93.121094 C 314.167969 102.921875 312.867188 105.820312 306.765625 109.921875 C 300.265625 114.320312 287.765625 113.722656 282.765625 108.722656 C 280.667969 106.722656 280.167969 105.222656 280.167969 101.222656 C 280.167969 97.023438 280.667969 95.820312 283.265625 93.222656 C 285.964844 90.523438 287.964844 89.722656 299.765625 87.320312 C 307.167969 85.722656 313.566406 84.421875 313.964844 84.320312 C 314.464844 84.320312 314.667969 88.222656 314.464844 93.121094 Z M 314.464844 93.121094 "/>
<path fill="#F5F5F5" fill-opacity="1" d="M 399.066406 35.820312 C 394.167969 37.523438 387.566406 43.023438 383.566406 48.523438 L 380.667969 52.523438 L 380.667969 36.222656 L 356.667969 36.222656 L 356.667969 127.222656 L 381.464844 127.222656 L 381.867188 102.421875 C 382.464844 73.320312 383.167969 69.722656 389.964844 63.523438 C 395.167969 58.722656 402.167969 56.621094 410.265625 57.621094 L 415.765625 58.222656 L 415.464844 46.523438 L 415.167969 34.722656 L 409.167969 34.523438 C 405.867188 34.421875 401.265625 35.023438 399.066406 35.820312 Z M 399.066406 35.820312 "/>
<path fill="#F5F5F5" fill-opacity="1" d="M 107.667969 130.023438 C 107.066406 130.222656 106.667969 135.722656 106.667969 143.820312 L 106.667969 157.222656 L 91.667969 157.222656 L 91.667969 174.222656 L 106.667969 174.222656 L 106.667969 202.421875 C 106.667969 218.820312 107.066406 232.320312 107.667969 234.421875 C 109.066406 239.523438 113.265625 244.121094 118.367188 246.421875 C 123.167969 248.523438 138.765625 249.921875 145.964844 248.820312 L 150.667969 248.121094 L 150.667969 229.222656 L 143.367188 229.222656 C 131.867188 229.222656 132.265625 230.222656 131.867188 199.621094 L 131.464844 174.320312 L 140.867188 174.023438 L 150.167969 173.722656 L 150.464844 165.421875 L 150.765625 157.222656 L 131.667969 157.222656 L 131.667969 129.722656 L 120.167969 129.722656 C 113.867188 129.722656 108.265625 129.820312 107.667969 130.023438 Z M 107.667969 130.023438 "/>
<path fill="#F5F5F5" fill-opacity="1" d="M 34.265625 155.523438 C 20.867188 156.921875 9.667969 164.523438 6.867188 174.023438 C 5.167969 179.523438 5.367188 188.820312 7.167969 192.722656 C 10.964844 200.621094 17.367188 204.023438 37.867188 209.121094 C 46.367188 211.320312 54.765625 213.722656 56.464844 214.621094 C 70.867188 222.023438 58.066406 236.820312 40.566406 233.121094 C 34.066406 231.722656 27.667969 226.121094 27.667969 221.820312 L 27.667969 219.222656 L 3.367188 219.222656 L 3.964844 224.421875 C 4.765625 231.121094 10.167969 239.320312 16.367188 243.222656 C 25.066406 248.722656 29.667969 249.722656 46.667969 249.722656 C 60.367188 249.621094 62.765625 249.421875 67.867188 247.421875 C 80.167969 242.523438 87.667969 231.921875 87.667969 219.621094 C 87.667969 205.121094 79.167969 197.921875 55.765625 192.722656 C 39.964844 189.121094 37.667969 188.320312 33.964844 185.523438 C 27.167969 180.523438 30.964844 172.921875 40.964844 171.722656 C 46.667969 171.023438 48.765625 171.320312 54.867188 173.921875 C 58.265625 175.320312 59.167969 176.621094 61.066406 182.421875 C 61.566406 184.023438 63.066406 184.222656 73.167969 184.222656 L 84.667969 184.222656 L 84.667969 180.921875 C 84.667969 176.523438 80.667969 168.421875 76.566406 164.523438 C 70.566406 158.820312 62.566406 155.921875 51.167969 155.320312 C 45.566406 155.023438 37.964844 155.023438 34.265625 155.523438 Z M 34.265625 155.523438 "/>
<path fill="#F5F5F5" fill-opacity="1" d="M 197.667969 155.320312 C 185.066406 156.621094 173.765625 163.023438 167.265625 172.523438 C 161.167969 181.320312 159.464844 187.222656 158.867188 200.421875 C 158.367188 214.421875 160.265625 222.523438 166.566406 231.820312 C 171.367188 238.921875 175.464844 242.320312 184.464844 246.523438 C 190.964844 249.621094 191.464844 249.722656 205.167969 249.722656 C 218.265625 249.722656 219.566406 249.523438 225.667969 246.921875 C 237.464844 242.023438 246.367188 232.023438 250.167969 219.523438 C 252.765625 211.421875 253.167969 199.621094 251.265625 190.921875 C 245.464844 165.023438 226.464844 152.421875 197.667969 155.320312 Z M 217.367188 177.820312 C 222.464844 182.023438 225.367188 187.421875 226.667969 195.621094 C 228.667969 208.121094 225.464844 221.621094 219.167969 227.121094 C 210.066406 235.023438 194.765625 233.222656 188.667969 223.523438 C 184.667969 217.222656 183.367188 210.523438 183.867188 199.820312 C 184.867188 182.023438 192.167969 173.921875 206.867188 174.523438 C 212.566406 174.722656 214.066406 175.222656 217.367188 177.820312 Z M 217.367188 177.820312 "/>
<path fill="#F5F5F5" fill-opacity="1" d="M 311.964844 155.421875 C 305.066406 156.621094 299.066406 159.722656 294.265625 164.820312 L 289.667969 169.621094 L 289.667969 157.222656 L 265.667969 157.222656 L 265.667969 248.222656 L 291.566406 248.222656 L 291.867188 217.921875 C 292.167969 190.023438 292.367188 187.421875 294.167969 183.820312 C 297.167969 177.820312 300.566406 175.820312 308.566406 175.421875 C 317.464844 174.921875 321.066406 176.722656 323.964844 183.023438 C 326.066406 187.421875 326.167969 189.421875 326.464844 217.921875 L 326.867188 248.222656 L 351.765625 248.222656 L 351.367188 213.921875 C 351.066406 191.421875 350.566406 178.121094 349.765625 174.921875 C 347.566406 166.421875 339.765625 158.421875 331.765625 156.222656 C 326.765625 154.921875 316.964844 154.523438 311.964844 155.421875 Z M 311.964844 155.421875 "/>
<path fill="#F5F5F5" fill-opacity="1" d="M 393.667969 157.222656 C 378.667969 162.722656 367.867188 175.320312 364.566406 191.222656 C 362.867188 199.320312 363.867188 215.523438 366.566406 222.222656 C 371.464844 234.921875 380.167969 243.421875 392.464844 247.820312 C 397.765625 249.722656 401.265625 250.222656 409.265625 250.222656 C 429.566406 250.222656 441.566406 243.523438 449.167969 227.820312 C 452.566406 220.820312 452.464844 219.023438 448.765625 219.722656 C 447.867188 219.921875 443.265625 220.121094 438.566406 220.121094 C 430.367188 220.222656 429.964844 220.320312 428.867188 222.722656 C 427.265625 226.222656 419.367188 231.023438 413.867188 231.820312 C 408.367188 232.621094 400.464844 230.921875 396.566406 228.121094 C 392.867188 225.523438 389.867188 219.621094 388.964844 213.722656 L 388.367188 209.222656 L 453.464844 209.222656 L 454.066406 206.921875 C 454.667969 204.320312 454.066406 197.320312 452.566406 189.820312 C 450.066406 176.820312 440.464844 164.121094 429.167969 158.722656 C 423.765625 156.121094 422.066406 155.722656 411.167969 155.523438 C 401.066406 155.222656 398.265625 155.523438 393.667969 157.222656 Z M 420.566406 177.121094 C 422.464844 178.523438 424.964844 181.722656 426.265625 184.621094 C 430.464844 193.722656 431.464844 193.222656 408.667969 193.222656 C 393.367188 193.222656 388.667969 192.921875 388.667969 191.921875 C 388.667969 185.820312 393.964844 178.421875 400.167969 175.523438 C 405.066406 173.320312 416.464844 174.222656 420.566406 177.121094 Z M 420.566406 177.121094 "/>
</g>
</svg>
